<svg xmlns="http://www.w3.org/2000/svg" viewBox="0 0 512 512" fill="none" aria-hidden="true">
  <rect width="512" height="512" rx="96" fill="#1E6B4A"/>
  <g transform="translate(112 112) scale(6)">
    <path fill="#FFFFFF" d="M19.5 7 A17 17 0 1 0 19.5 41 L19.5 36.5 A12.5 12.5 0 1 1 19.5 11.5 Z"/>
    <circle cx="14" cy="24" r="3.2" fill="#A7E3C4"/>
    <rect x="25" y="12" width="14" height="5.5" rx="2.75" fill="#A7E3C4"/>
    <path fill="#E9F7EF" d="M25 20.5h12.5a3.5 3.5 0 0 1 3.5 3.5V35a3.5 3.5 0 0 1-3.5 3.5H27.5a2.5 2.5 0 0 1-2.5-2.5V23a2.5 2.5 0 0 1 2.5-2.5Z"/>
  </g>
</svg>
