<svg xmlns="http://www.w3.org/2000/svg" viewBox="0 0 256 48" fill="none" aria-label="CartFlow">
  <g transform="translate(0 0)">
    <path fill="#1E6B4A" d="M19.5 7 A17 17 0 1 0 19.5 41 L19.5 36.5 A12.5 12.5 0 1 1 19.5 11.5 Z"/>
    <circle cx="14" cy="24" r="3.2" fill="#A7E3C4"/>
    <rect x="25" y="12" width="14" height="5.5" rx="2.75" fill="#A7E3C4"/>
    <path fill="#2DA36A" d="M25 20.5h12.5a3.5 3.5 0 0 1 3.5 3.5V35a3.5 3.5 0 0 1-3.5 3.5H27.5a2.5 2.5 0 0 1-2.5-2.5V23a2.5 2.5 0 0 1 2.5-2.5Z"/>
  </g>
  <text x="58" y="33" font-family="Tajawal, IBM Plex Sans Arabic, sans-serif" font-size="26" font-weight="700" fill="#1E6B4A">Cart</text>
  <text x="128" y="33" font-family="Tajawal, IBM Plex Sans Arabic, sans-serif" font-size="26" font-weight="500" fill="#2DA36A">Flow</text>
</svg>
